# xmcd
#
# Track frame offsets:
#	150
#	17875
#	36075
#	53450
#	70350
#	83487
#	100300
#	111975
#	128450
#	156287
#	174937
#	189200
#	215050
#	231312
#	263687
#	278675
#	296687
#	319700
#
# Disc length: 4526
#
# Revision: 2
# Processed by: cddbd v1.5.1PL0 Copyright (c) Steve Scherf et al.
# Submitted via: CDex 1.51
# Normalized: r0:TSWAP
#
DISCID=f411ac12
DTITLE=OMNIBUS - TV MAX
DYEAR=1900
DGENRE=Rock
TTITLE0=NAHKI and DIANA KING - I'LL DO IT
TTITLE1=SUPER CAT FEATURING JACK RADICS - MY GIRL JOSEPHINE
TTITLE2=CYNDI LAUPER - COME ON HOME (Single Version)
TTITLE3=OUCH - IT COULD HAVE BEEN ME(CF Version)
TTITLE4=YOUSSOU N'DOUR - OB-LA-DI,OB-LA-DA
TTITLE5=GIPSY KINGS - INSPIRATION
TTITLE6=TONY BENNETT - JUST INTIME
TTITLE7=SANTANA - BLACK MAGIC WOMAN
TTITLE8=TOTO - DRAG HIM TO THE ROOF
TTITLE9=SUEDE - TRASH
TTITLE10=AMANDA MARSHALL - THIS COULD TAKE ALL NIGHT
TTITLE11=CELINE DION - THE POWER OF LOVE
TTITLE12=STONE AGE - KALON MARI(US Radio Version)
TTITLE13=KEN ISHII - CIRCULAR MOTION(Original Version)
TTITLE14=DEEP FOREST - FREEDOM CRY
TTITLE15=MEJA - RAINBOW
TTITLE16=BROWNSTONE - IF YOU LOVE ME
TTITLE17=YAYOI YOSHIDA - LA LA LA LOVE SONG
EXTD=
EXTT0=
EXTT1=
EXTT2=
EXTT3=
EXTT4=
EXTT5=
EXTT6=
EXTT7=
EXTT8=
EXTT9=
EXTT10=
EXTT11=
EXTT12=
EXTT13=
EXTT14=
EXTT15=
EXTT16=
EXTT17=
PLAYORDER=
